<?xml version="1.0" standalone="no"?>
<!DOCTYPE svg PUBLIC "-//W3C//DTD SVG 20010904//EN"
 "http://www.w3.org/TR/2001/REC-SVG-20010904/DTD/svg10.dtd">
<svg version="1.0" xmlns="http://www.w3.org/2000/svg"
 width="225.000000pt" height="225.000000pt" viewBox="0 0 225.000000 225.000000"
 preserveAspectRatio="xMidYMid meet">

<g transform="translate(0.000000,225.000000) scale(0.100000,-0.100000)"
fill="#000000" stroke="none">
<path d="M1187 2013 c-4 -3 -7 -13 -7 -22 1 -13 3 -13 11 2 11 19 8 33 -4 20z"/>
<path d="M1308 1979 c-25 -14 -24 -65 2 -79 12 -6 17 -16 13 -26 -4 -12 -1
-15 13 -12 10 2 18 10 16 17 -1 6 4 22 13 34 19 28 19 33 -5 57 -23 23 -28 24
-52 9z"/>
<path d="M1235 1969 c-10 -15 3 -25 16 -12 7 7 7 13 1 17 -6 3 -14 1 -17 -5z"/>
<path d="M1144 1945 c-12 -9 -14 -14 -6 -15 8 0 11 -7 8 -18 -5 -14 0 -18 23
-20 19 -1 31 3 35 14 5 13 9 14 21 4 9 -7 18 -10 22 -6 3 3 2 6 -4 6 -6 0 -13
10 -17 23 -4 16 -8 19 -15 9 -7 -11 -9 -11 -14 2 -8 20 -27 20 -53 1z"/>
<path d="M965 1930 c-11 -17 5 -32 21 -19 7 6 11 15 8 20 -7 12 -21 11 -29 -1z"/>
<path d="M1023 1907 c-4 -18 -10 -26 -19 -23 -8 3 -14 -1 -14 -10 0 -10 -6
-14 -14 -11 -7 3 -19 0 -25 -6 -8 -8 -11 -7 -11 3 0 9 -7 7 -20 -8 -11 -12
-20 -26 -20 -32 0 -5 -5 -10 -12 -10 -6 0 -8 -3 -5 -7 4 -3 16 2 27 12 11 10
23 15 27 12 3 -4 1 -7 -5 -7 -6 0 -13 -13 -17 -29 -6 -30 -75 -115 -75 -93 0
6 -9 16 -19 22 -16 8 -26 5 -50 -16 -17 -14 -31 -32 -31 -40 0 -9 -4 -12 -10
-9 -5 3 -10 1 -10 -4 0 -6 -5 -11 -11 -11 -6 0 -17 -7 -25 -15 -9 -8 -12 -15
-7 -15 5 0 14 5 19 10 12 12 44 3 44 -12 0 -6 -7 -8 -15 -5 -8 4 -17 2 -21 -4
-3 -6 -13 -8 -23 -4 -12 5 -13 4 -4 -6 10 -10 9 -15 -2 -23 -12 -9 -11 -14 9
-33 l23 -22 59 46 c61 48 157 97 209 108 27 6 28 5 10 -6 -39 -23 -97 -84
-117 -124 -30 -57 -35 -158 -13 -226 36 -106 151 -189 265 -189 106 0 218 -74
260 -171 28 -67 26 -172 -7 -237 l-21 -43 29 -14 c17 -9 26 -21 23 -29 -4 -9
6 -16 29 -20 19 -4 47 -16 61 -27 34 -27 106 -38 106 -17 0 8 13 26 28 39 15
14 37 38 49 54 18 25 23 27 37 16 9 -8 20 -11 23 -7 4 4 2 11 -5 15 -7 4 -10
15 -6 24 8 23 -33 88 -51 80 -8 -3 -13 -9 -10 -13 3 -4 -1 -10 -8 -13 -8 -3
-21 7 -31 23 -16 28 -16 29 3 40 13 7 21 23 23 48 2 29 8 38 24 40 12 2 40 19
63 38 22 20 41 32 41 28 0 -4 5 -3 12 4 7 7 20 12 29 12 12 0 16 6 12 20 -6
23 15 28 35 8 9 -9 12 -9 12 -1 0 7 9 14 19 18 31 10 34 45 5 72 -21 19 -23
26 -14 43 6 12 9 26 7 33 -6 18 11 47 28 47 17 0 19 9 5 44 -8 21 -6 25 13 28
27 4 43 63 20 73 -8 3 -12 12 -9 20 3 8 1 15 -5 15 -6 0 -8 4 -4 9 7 12 -47
22 -92 18 -26 -3 -34 1 -39 17 -4 12 -13 29 -21 38 -13 15 -19 15 -54 3 -36
-13 -40 -13 -49 5 -6 11 -17 20 -25 20 -7 0 -16 9 -20 19 -8 25 -31 33 -55 19
-10 -7 -22 -9 -26 -6 -10 11 6 28 27 28 23 0 25 23 4 44 -8 8 -15 24 -15 34 0
11 -3 27 -6 36 -7 18 -34 22 -34 4 0 -6 -9 -3 -20 7 -12 11 -20 13 -20 6 0 -7
-5 -9 -10 -6 -6 4 -8 11 -5 16 4 5 -8 17 -24 27 -17 9 -29 23 -26 30 2 6 0 12
-5 12 -6 0 -10 -7 -10 -15 0 -21 -12 -19 -44 6 -15 12 -29 19 -32 16 -3 -3 4
-10 15 -17 21 -11 29 -40 11 -40 -5 0 -10 7 -10 16 0 8 -4 13 -9 10 -5 -3 -11
1 -15 9 -6 17 -43 20 -66 5 -8 -5 -10 -10 -4 -10 7 0 19 -11 28 -25 15 -23 15
-27 1 -48 -8 -13 -12 -27 -8 -30 3 -4 4 -7 1 -7 -3 0 -13 12 -23 26 -13 20
-14 28 -4 40 13 16 2 18 -21 4 -10 -6 -23 0 -47 23 -39 38 -43 54 -8 31 22
-14 25 -15 19 -1 -3 8 -12 18 -20 21 -8 3 -14 12 -14 20 0 7 -9 16 -21 19 -18
5 -20 2 -15 -20 8 -30 -2 -66 -15 -57 -6 3 -8 12 -5 19 3 8 -1 18 -8 24 -10 8
-16 5 -26 -14 -7 -13 -17 -22 -22 -19 -4 3 -8 1 -8 -4 0 -15 -39 -21 -48 -8
-4 7 -18 20 -32 30 l-25 18 38 -6 c37 -7 42 -3 38 31 -2 14 24 8 48 -11 11 -8
13 -8 7 2 -4 7 -2 12 8 12 22 0 27 14 20 60 -6 39 -8 40 -41 38 -29 -2 -35 -7
-40 -31z m-23 -77 c0 -5 -4 -10 -10 -10 -5 0 -10 5 -10 10 0 6 5 10 10 10 6 0
10 -4 10 -10z m441 -115 c-1 -15 -24 -12 -29 3 -3 9 2 13 12 10 10 -1 17 -7
17 -13z m129 -36 c0 -6 -4 -7 -10 -4 -5 3 -10 11 -10 16 0 6 5 7 10 4 6 -3 10
-11 10 -16z m30 -79 c0 -5 -2 -10 -4 -10 -3 0 -8 5 -11 10 -3 6 -1 10 4 10 6
0 11 -4 11 -10z m-10 -82 c0 -12 -4 -17 -12 -12 -8 5 -9 2 -5 -9 9 -25 -9 -21
-27 5 -22 31 -20 37 14 36 23 -1 30 -6 30 -20z m-384 -32 c39 -39 45 -86 19
-136 -54 -104 -215 -62 -215 56 0 39 5 51 34 80 29 29 41 34 81 34 40 0 52 -5
81 -34z m334 -2 c0 -9 -5 -14 -12 -12 -18 6 -21 28 -4 28 9 0 16 -7 16 -16z
m225 -148 c16 -12 17 -16 6 -30 -18 -21 -24 -20 -39 4 -22 35 -1 51 33 26z
m15 -165 c0 -5 -7 -11 -15 -15 -15 -5 -20 5 -8 17 9 10 23 9 23 -2z m75 -51
c3 -5 1 -10 -4 -10 -6 0 -11 5 -11 10 0 6 2 10 4 10 3 0 8 -4 11 -10z m15 -56
c0 -9 -5 -14 -12 -12 -18 6 -21 28 -4 28 9 0 16 -7 16 -16z m-60 -25 c0 -15
-30 -23 -42 -11 -6 6 -8 18 -4 27 4 13 10 14 26 5 11 -6 20 -15 20 -21z m-126
-43 c14 13 16 13 16 0 0 -8 8 -16 17 -18 15 -3 15 -4 -1 -20 -19 -19 -41 -25
-31 -8 4 7 -2 9 -19 4 -22 -5 -26 -3 -26 15 0 24 -12 27 -29 7 -10 -12 -7 -18
19 -31 26 -13 29 -19 19 -31 -6 -8 -17 -14 -23 -13 -14 0 -61 59 -47 59 6 0
11 6 11 13 0 28 22 37 51 22 24 -13 30 -13 43 1z"/>
<path d="M1384 1876 c-4 -11 0 -24 10 -34 15 -15 16 -15 16 3 0 11 -4 27 -10
35 -8 12 -10 12 -16 -4z"/>
<path d="M713 1806 c-18 -25 -26 -43 -18 -40 7 3 16 1 19 -5 8 -12 60 4 77 25
10 12 7 19 -11 39 -13 14 -26 25 -30 25 -3 0 -20 -20 -37 -44z"/>
<path d="M1584 1839 c-8 -14 11 -33 25 -25 11 7 4 36 -9 36 -5 0 -12 -5 -16
-11z"/>
<path d="M1420 1819 c0 -5 4 -9 10 -9 5 0 12 -11 16 -24 3 -13 17 -29 30 -35
32 -14 37 -14 32 2 -3 6 -11 12 -19 12 -8 0 -14 10 -14 24 0 18 -7 26 -27 32
-16 4 -28 3 -28 -2z"/>
<path d="M830 1805 c0 -8 4 -15 10 -15 5 0 7 7 4 15 -4 8 -8 15 -10 15 -2 0
-4 -7 -4 -15z"/>
<path d="M587 1804 c-8 -8 1 -24 14 -24 5 0 9 7 9 15 0 15 -12 20 -23 9z"/>
<path d="M1025 1800 c-11 -19 5 -30 25 -18 14 9 16 14 7 20 -16 10 -25 10 -32
-2z"/>
<path d="M520 1760 c-9 -16 -8 -25 1 -36 16 -19 58 -18 66 2 16 41 -46 73 -67
34z"/>
<path d="M1216 1762 c-2 -4 0 -14 6 -22 8 -12 9 -12 5 2 -3 9 -1 19 6 22 9 3
9 5 0 5 -6 1 -14 -3 -17 -7z"/>
<path d="M1521 1734 c0 -11 3 -14 6 -6 3 7 2 16 -1 19 -3 4 -6 -2 -5 -13z"/>
<path d="M1843 1714 c-9 -23 13 -40 32 -24 8 7 15 19 15 26 0 19 -39 18 -47
-2z"/>
<path d="M614 1698 c-4 -6 1 -17 12 -25 16 -12 20 -11 31 3 7 9 10 21 7 25 -8
13 -42 11 -50 -3z"/>
<path d="M1659 1651 c10 -37 56 -38 56 -1 0 21 -5 25 -31 26 -29 1 -31 -1 -25
-25z"/>
<path d="M1757 1673 c-4 -3 -7 -11 -7 -17 0 -6 5 -5 12 2 6 6 9 14 7 17 -3 3
-9 2 -12 -2z"/>
<path d="M600 1625 c0 -8 4 -15 10 -15 5 0 7 7 4 15 -4 8 -8 15 -10 15 -2 0
-4 -7 -4 -15z"/>
<path d="M1890 1594 c0 -8 5 -12 10 -9 6 4 8 11 5 16 -9 14 -15 11 -15 -7z"/>
<path d="M627 1583 c-4 -3 -7 -14 -7 -23 0 -9 -6 -17 -12 -18 -31 -2 -90 -21
-104 -33 -13 -10 -17 -10 -24 0 -5 10 -9 10 -15 2 -4 -7 -3 -17 2 -24 5 -7 11
-32 12 -55 2 -38 0 -43 -16 -40 -10 2 -18 12 -18 23 0 31 -26 47 -45 27 -21
-22 -14 -72 11 -72 10 0 21 5 25 12 5 7 11 5 21 -7 27 -38 18 -42 -72 -36 -15
1 -17 3 -6 10 9 6 10 11 2 15 -6 4 -11 18 -11 31 0 15 -5 23 -12 20 -9 -4 -13
6 -13 32 0 31 -4 39 -21 41 -18 3 -20 -2 -19 -35 0 -21 -5 -44 -13 -52 -7 -7
-11 -19 -8 -26 3 -10 -1 -10 -20 -1 -13 6 -27 19 -30 29 -7 23 -13 21 -51 -13
-29 -26 -31 -31 -20 -53 13 -24 13 -24 37 -5 27 22 35 16 47 -31 l9 -33 32 27
c18 15 30 31 27 35 -3 5 7 8 21 7 33 -3 43 -23 15 -32 -10 -3 -24 -19 -30 -36
-6 -17 -15 -28 -21 -24 -5 3 -10 -1 -10 -9 0 -9 5 -16 10 -16 6 0 10 -7 10
-15 0 -8 9 -24 19 -34 24 -24 59 -17 73 15 12 26 16 28 36 16 10 -7 9 -14 -2
-38 -9 -18 -13 -47 -11 -74 3 -35 0 -49 -17 -67 -12 -13 -17 -23 -11 -23 6 0
20 12 31 27 11 16 23 25 27 22 3 -4 -1 -14 -10 -22 -8 -9 -15 -20 -15 -26 0
-6 -9 -19 -20 -29 -18 -17 -19 -21 -6 -31 17 -14 11 -41 -9 -41 -20 0 -29 -20
-16 -33 7 -7 16 -6 30 7 19 18 47 14 36 -5 -4 -5 7 -12 23 -15 18 -4 32 -14
35 -25 4 -13 14 -19 36 -19 17 0 31 -4 31 -9 0 -10 -72 -67 -81 -64 -3 1 -7
-22 -8 -52 -1 -49 1 -55 30 -76 l32 -22 28 34 c16 19 29 29 29 23 0 -7 7 -15
16 -18 11 -4 15 0 14 17 -4 42 0 48 22 45 21 -3 23 -9 25 -63 0 -33 -3 -65 -7
-70 -6 -7 1 -12 17 -13 15 -1 29 -6 32 -10 3 -4 27 -13 54 -19 42 -9 47 -8 47
7 0 26 12 31 26 12 14 -18 19 -46 7 -39 -5 3 -8 -16 -8 -41 0 -41 -3 -47 -22
-50 -15 -2 -23 -10 -23 -23 0 -25 16 -24 30 1 11 21 11 21 41 -5 33 -27 59
-31 89 -15 14 8 25 7 40 -2 15 -10 22 -10 32 0 6 6 20 12 30 12 22 0 24 26 3
37 -9 5 -12 17 -9 31 4 12 10 19 15 16 5 -3 9 2 9 10 0 9 9 30 19 47 16 27 20
29 25 13 3 -11 23 -30 44 -44 46 -31 57 -36 48 -21 -5 7 3 11 22 11 17 0 32 6
35 14 4 9 14 12 26 9 12 -3 21 -1 21 6 0 6 -8 11 -17 11 -17 1 -17 2 0 14 10
8 14 17 8 20 -5 3 -12 0 -15 -6 -3 -9 -9 -7 -21 7 -15 19 -14 21 7 30 13 5 28
15 33 21 6 7 19 14 30 16 25 4 33 38 9 38 -9 0 -32 -11 -50 -25 -52 -39 -114
-65 -161 -65 -33 0 -43 -4 -43 -17 0 -15 -1 -15 -18 0 -10 10 -28 17 -40 17
-12 0 -33 5 -47 12 -19 8 -31 8 -50 0 -23 -11 -29 -9 -50 14 l-25 27 -21 -27
c-11 -14 -26 -26 -34 -26 -7 0 -18 -7 -25 -15 -21 -25 -33 -17 -16 10 9 14 14
31 10 37 -5 8 -10 5 -15 -8 -5 -13 -8 -14 -8 -4 -1 23 18 47 27 34 4 -6 16
-14 27 -18 16 -6 18 -5 8 5 -7 7 -13 21 -13 30 0 10 -28 44 -61 76 -34 32 -75
78 -91 102 -24 33 -33 40 -40 30 -7 -10 -8 -8 -5 8 3 12 -6 52 -20 89 -30 84
-40 202 -24 286 7 35 33 107 57 160 46 98 52 133 24 133 -9 0 -16 11 -18 28
-3 22 1 27 18 27 12 0 18 5 15 10 -7 11 -28 13 -38 3z m-12 -112 c3 -5 1 -12
-5 -16 -5 -3 -10 1 -10 9 0 18 6 21 15 7z m-61 -56 c6 -17 4 -18 -18 -9 -20 8
-21 24 -2 24 8 0 16 -7 20 -15z m-364 -49 c0 -3 -4 -8 -10 -11 -5 -3 -10 -1
-10 4 0 6 5 11 10 11 6 0 10 -2 10 -4z m90 -44 c0 -13 -12 -22 -22 -16 -10 6
-1 24 13 24 5 0 9 -4 9 -8z m184 -1 c3 -5 -1 -14 -9 -21 -19 -16 -19 -34 0
-26 19 7 19 -1 0 -20 -12 -13 -15 -12 -23 3 -17 31 -12 73 9 73 10 0 20 -4 23
-9z m56 -51 c0 -5 -4 -10 -10 -10 -5 0 -10 5 -10 10 0 6 5 10 10 10 6 0 10 -4
10 -10z m60 -392 c0 -6 -7 -7 -16 -4 -9 3 -18 6 -20 6 -3 0 -3 4 1 10 7 11 35
2 35 -12z"/>
<path d="M2017 1554 c-34 -18 -29 -29 8 -20 14 4 25 13 25 21 0 18 2 18 -33
-1z"/>
<path d="M1906 1541 c-10 -16 5 -41 25 -41 24 0 25 20 2 21 -11 0 -13 3 -5 6
6 2 10 9 6 14 -7 12 -21 12 -28 0z"/>
<path d="M1940 1270 c0 -5 5 -10 11 -10 5 0 7 5 4 10 -3 6 -8 10 -11 10 -2 0
-4 -4 -4 -10z"/>
<path d="M180 1250 c0 -5 5 -10 10 -10 6 0 10 5 10 10 0 6 -4 10 -10 10 -5 0
-10 -4 -10 -10z"/>
<path d="M2027 1253 c-13 -12 -7 -33 8 -33 8 0 15 9 15 20 0 20 -11 26 -23 13z"/>
<path d="M219 1214 c-5 -16 0 -25 22 -38 16 -10 29 -13 29 -8 0 5 -9 12 -19
15 -11 2 -21 15 -23 28 -3 23 -4 23 -9 3z"/>
<path d="M1977 1209 c7 -9 10 -19 6 -22 -3 -4 -1 -7 5 -7 17 0 15 16 -5 31
-16 12 -17 12 -6 -2z"/>
<path d="M170 1206 c0 -2 8 -10 18 -17 15 -13 16 -12 3 4 -13 16 -21 21 -21
13z"/>
<path d="M280 1145 c0 -8 9 -15 20 -15 11 0 20 7 20 15 0 8 -9 15 -20 15 -11
0 -20 -7 -20 -15z"/>
<path d="M230 1024 c-22 -26 -1 -69 34 -69 40 0 58 29 31 49 -12 10 -15 15 -7
16 7 0 10 5 6 11 -4 8 -9 7 -16 -2 -7 -11 -11 -11 -15 -1 -6 16 -18 15 -33 -4z"/>
<path d="M326 972 c-3 -6 -1 -14 5 -17 15 -10 25 3 12 16 -7 7 -13 7 -17 1z"/>
<path d="M1048 921 c-29 -26 -33 -36 -33 -79 0 -40 5 -56 24 -76 64 -68 180
-38 197 51 20 107 -106 177 -188 104z"/>
<path d="M1775 900 c-8 -13 4 -32 16 -25 12 8 12 35 0 35 -6 0 -13 -4 -16 -10z"/>
<path d="M1863 903 c-17 -6 -16 -38 1 -52 20 -16 46 -3 46 24 0 18 -22 40 -33
34 -1 0 -8 -3 -14 -6z"/>
<path d="M1746 871 c-4 -6 -3 -19 3 -28 9 -17 10 -17 17 0 8 21 -10 45 -20 28z"/>
<path d="M347 801 c20 -28 31 -36 40 -29 17 13 5 38 -18 38 -11 0 -22 7 -25
15 -4 8 -10 15 -16 15 -5 0 3 -18 19 -39z"/>
<path d="M1680 830 c0 -5 5 -10 10 -10 6 0 10 5 10 10 0 6 -4 10 -10 10 -5 0
-10 -4 -10 -10z"/>
<path d="M281 801 c-19 -12 -6 -41 19 -41 25 0 38 29 19 41 -8 5 -16 9 -19 9
-3 0 -11 -4 -19 -9z"/>
<path d="M1747 777 c-3 -8 1 -23 8 -34 11 -14 18 -16 32 -7 28 17 23 48 -8 52
-16 2 -29 -3 -32 -11z"/>
<path d="M1815 640 c3 -5 10 -10 16 -10 5 0 9 5 9 10 0 6 -7 10 -16 10 -8 0
-12 -4 -9 -10z"/>
<path d="M646 632 c-3 -6 -1 -14 5 -17 15 -10 25 3 12 16 -7 7 -13 7 -17 1z"/>
<path d="M830 619 c0 -5 5 -7 10 -4 6 3 10 8 10 11 0 2 -4 4 -10 4 -5 0 -10
-5 -10 -11z"/>
<path d="M544 559 c-7 -12 32 -48 53 -49 16 0 6 31 -15 48 -20 15 -29 15 -38
1z"/>
<path d="M710 495 c-10 -12 -10 -15 4 -15 9 0 16 7 16 15 0 8 -2 15 -4 15 -2
0 -9 -7 -16 -15z"/>
<path d="M1450 490 c0 -5 7 -10 16 -10 8 0 12 5 9 10 -3 6 -10 10 -16 10 -5 0
-9 -4 -9 -10z"/>
<path d="M650 480 c0 -5 5 -10 10 -10 6 0 10 5 10 10 0 6 -4 10 -10 10 -5 0
-10 -4 -10 -10z"/>
<path d="M1193 429 c-26 -10 -30 -31 -8 -49 13 -11 15 -8 15 13 0 14 6 27 13
30 6 2 10 7 7 9 -3 3 -15 2 -27 -3z"/>
<path d="M1334 420 c-26 -10 -37 -26 -29 -41 5 -6 11 -4 19 6 12 17 51 11 40
-6 -6 -10 19 -13 28 -4 8 9 -15 55 -27 54 -5 0 -20 -4 -31 -9z"/>
<path d="M1235 381 c-7 -12 12 -24 25 -16 11 7 4 25 -10 25 -5 0 -11 -4 -15
-9z"/>
<path d="M1520 380 c0 -5 5 -10 10 -10 6 0 10 5 10 10 0 6 -4 10 -10 10 -5 0
-10 -4 -10 -10z"/>
<path d="M1125 370 c-3 -5 -1 -10 4 -10 6 0 11 5 11 10 0 6 -2 10 -4 10 -3 0
-8 -4 -11 -10z"/>
</g>
</svg>
